<svg xmlns="http://www.w3.org/2000/svg" viewBox="32 80 139 50"><defs><style>.a{fill:#f2f2f2;fill-rule:evenodd;}.b,.c{fill:#1bb76e;}.b{font-size:10px;font-family:HelveticaNeue-Bold, Helvetica Neue;font-weight:700;}</style></defs><path class="a" d="M131.755,21.022c-2.356,1-2.624,1.9-2.624,4.47v7.8c0,3.662-1.339,5.469-4.23,5.469s-4.23-1.807-4.23-5.469V18.216c0-3.662,1.338-5.422,4.23-5.422a4.538,4.538,0,0,1,4.015,2.378,8.393,8.393,0,0,1,5.729-2.52c2.356,0,4.283,1.711,4.283,3.708,0,3-3.748,3.234-7.174,4.661M103.592,39.187c-8.191,0-12.742-3.8-12.742-10.984V18.216c0-3.662,1.338-5.422,4.23-5.422,2.838,0,4.176,1.76,4.176,5.422V26.68c0,3.519.911,5.469,4.337,5.469s4.337-1.95,4.337-5.469V18.216c0-3.662,1.339-5.422,4.23-5.422s4.176,1.76,4.176,5.422V28.2c0,7.18-4.551,10.984-12.743,10.984M72.968,19.642c-3.106,0-5.515,2.378-5.515,6.134,0,3.851,2.356,6.277,5.515,6.277s5.567-2.473,5.567-6.277c0-3.757-2.462-6.134-5.567-6.134M84.586,43.656c-2.462,3.662-6.853,5.611-12.85,5.611-7.71,0-12.368-2.52-12.368-5.469a3.372,3.372,0,0,1,3.64-3.281c2.088,0,4.6,2,9.049,2,4.123,0,6.585-2.235,6.585-6.324,0-.285-.054-.571-.054-.9a9.132,9.132,0,0,1-7.656,3.519c-6.639,0-12.207-5.421-12.207-13.029A13.06,13.06,0,0,1,71.843,12.509a8.677,8.677,0,0,1,6.746,2.663,4.633,4.633,0,0,1,3.748-2.378c2.891,0,4.23,1.76,4.23,5.422V33.29c0,4.518-.321,7.941-1.981,10.366m-33.463-4.9c-2.89,0-4.176-1.807-4.176-5.469V24.826c0-3.8-1.124-5.706-3.855-5.706-3.052,0-4.229,1.9-4.229,5.611V33.29c0,3.662-1.338,5.469-4.23,5.469S30.4,36.951,30.4,33.29V24.826c0-3.8-1.071-5.706-3.8-5.706-3.051,0-4.23,1.9-4.23,5.611V33.29c0,3.662-1.339,5.469-4.229,5.469s-4.23-1.807-4.23-5.469V18.216c0-3.662,1.338-5.422,4.23-5.422a4.538,4.538,0,0,1,4.015,2.378A9.068,9.068,0,0,1,28.9,12.7a10.42,10.42,0,0,1,8.406,3.519A11.067,11.067,0,0,1,45.823,12.7c5.836,0,9.53,3.376,9.53,9.843V33.29c0,3.662-1.338,5.469-4.23,5.469M5.025,12.795c2.838,0,4.176,1.76,4.176,5.422V33.29c0,3.662-1.284,5.469-4.176,5.469S.8,36.951.8,33.29V18.216c0-3.662,1.339-5.422,4.23-5.422" transform="translate(31.848 78.733)"/><text class="b" transform="translate(170 128)"><tspan x="-26.11" y="0">TRAY</tspan></text><circle class="c" cx="5" cy="5" r="5" transform="translate(32 80)"/></svg>